<svg width="720" height="220" viewBox="0 0 720 220" fill="none" xmlns="http://www.w3.org/2000/svg">
  <defs>
    <linearGradient id="bg" x1="40" y1="20" x2="680" y2="220" gradientUnits="userSpaceOnUse">
      <stop stop-color="#0B1020"/>
      <stop offset="1" stop-color="#141B34"/>
    </linearGradient>
    <linearGradient id="gold" x1="86" y1="36" x2="164" y2="174" gradientUnits="userSpaceOnUse">
      <stop stop-color="#F7D774"/>
      <stop offset="1" stop-color="#D6A93A"/>
    </linearGradient>
    <radialGradient id="glow" cx="0" cy="0" r="1" gradientUnits="userSpaceOnUse" gradientTransform="translate(118 109) rotate(90) scale(96 88)">
      <stop stop-color="#F7D774" stop-opacity="0.2"/>
      <stop offset="1" stop-color="#F7D774" stop-opacity="0"/>
    </radialGradient>
    <filter id="shadow" x="0" y="0" width="720" height="220" filterUnits="userSpaceOnUse" color-interpolation-filters="sRGB">
      <feDropShadow dx="0" dy="8" stdDeviation="12" flood-color="#05070F" flood-opacity="0.45"/>
    </filter>
  </defs>

  <g filter="url(#shadow)">
    <rect x="20" y="20" width="680" height="180" rx="28" fill="url(#bg)"/>
    <rect x="21" y="21" width="678" height="178" rx="27" stroke="#2A335F" stroke-opacity="0.55"/>
  </g>

  <ellipse cx="118" cy="109" rx="88" ry="96" fill="url(#glow)"/>

  <g stroke="url(#gold)" stroke-width="6" stroke-linecap="round" stroke-linejoin="round">
    <path d="M108 162C113 142 118 121 124 102C129 83 141 63 158 46"/>
    <path d="M123 111C104 103 91 90 83 73"/>
    <path d="M128 93C110 85 98 72 91 58"/>
    <path d="M135 76C118 68 107 57 102 45"/>
    <path d="M136 125C154 117 168 104 176 86"/>
    <path d="M141 107C160 98 173 84 180 68"/>
    <path d="M147 89C165 80 176 68 182 54"/>
  </g>

  <g fill="url(#gold)">
    <ellipse cx="79" cy="70" rx="11" ry="6.5" transform="rotate(-32 79 70)"/>
    <ellipse cx="88" cy="53" rx="10.5" ry="6" transform="rotate(-29 88 53)"/>
    <ellipse cx="99" cy="41" rx="10" ry="5.5" transform="rotate(-24 99 41)"/>
    <ellipse cx="176" cy="84" rx="11" ry="6.5" transform="rotate(28 176 84)"/>
    <ellipse cx="181" cy="67" rx="10.5" ry="6" transform="rotate(26 181 67)"/>
    <ellipse cx="183" cy="52" rx="10" ry="5.5" transform="rotate(22 183 52)"/>
  </g>

  <path d="M224 54H224.5" stroke="#313C70" stroke-width="92" stroke-linecap="round"/>

  <text x="664" y="108" text-anchor="end" direction="rtl" font-family="'Noto Serif Hebrew','Times New Roman',serif" font-size="86" font-weight="700" fill="#F7F2D8">
    שִׁבֹּלֶת
  </text>
  <text x="664" y="154" text-anchor="end" font-family="Inter,system-ui,sans-serif" font-size="18" letter-spacing="0.28em" fill="#95A1D8">
    TRUTH CONSOLE · BENCHMARK OBSERVATORY
  </text>
</svg>
